<svg width="83" height="82" viewBox="0 0 83 82" fill="none" xmlns="http://www.w3.org/2000/svg">
<path d="M63.465 48.74L60.725 49.22L61.445 43.75L60.725 42.68L61.445 36.5L68.455 39.36L63.465 48.75V48.74ZM74.635 65.14H65.485L74.165 51.48L76.775 42.56L82.245 44.46C81.765 51.35 79.505 58.36 74.635 65.14ZM71.425 51L67.975 53.97L61.075 65.13H56.565L61.075 57.17L64.645 54.21L69.765 39.82L75.235 42.08L71.425 51ZM59.655 23.18L41.465 12.6L34.815 11.41V16.28L39.925 21.04L32.795 20.44C32.795 20.44 33.025 20.8 38.975 27.1L66.075 31.61L70.835 34.7L58.475 35.3L53.365 53.96L36.605 65.12H25.675L29.355 57.88L28.765 57.64L18.895 65.12H16.515L26.625 50.98C27.095 46.94 26.865 48.72 27.455 41.47L25.915 39.33L21.875 55.02L13.435 65.11H11.295L16.285 58.1L23.295 36.59L21.515 37.42L18.425 45.98L16.285 47.17C16.285 47.17 11.295 59.29 8.67496 65.24C4.86496 59.79 0.584961 52.43 0.584961 39.59C0.584961 20.33 17.105 0 41.955 0C66.805 0 78.565 19.02 80.705 28.89L59.665 23.19L59.655 23.18ZM54.065 65.13H48.355L58.935 51.94L60.005 53.96L54.065 65.12V65.13ZM41.705 81.54C31.595 81.54 19.235 77.97 10.325 67.04H72.975C65.725 76.43 53.245 81.54 41.715 81.54M41.955 2.61C18.655 2.62 3.43496 21.76 3.43496 39.59C3.43496 49.82 5.93496 54.92 8.66496 59.8C12.115 50.53 19.005 32.1 19.005 32.1C19.005 32.1 22.215 30.44 22.215 30.67L26.845 18.9L29.815 17.35L33.505 9.51L41.585 10.82L57.985 19.97L76.415 25.08C71.675 12.96 58.235 2.62 41.955 2.62" fill="white"/>
</svg>
