<svg width="121" height="121" viewBox="0 0 121 121" fill="none" xmlns="http://www.w3.org/2000/svg">
<g id="Ilustraci&#195;&#179;n">
<circle id="BG" opacity="0.8" cx="60" cy="60.5" r="60" fill="#E2F4FF"/>
<g id="Illustration">
<rect id="Rectangle 4" x="21.8181" y="34.5898" width="75" height="55.9091" fill="#D9D2E4"/>
<path id="Vector" d="M94.7727 26.4082H23.8636C18.9443 26.4082 15.0443 30.3525 15.0443 35.2718L15 88.4537C15 93.373 18.9443 97.3173 23.8636 97.3173H94.7727C99.692 97.3173 103.636 93.373 103.636 88.4537V35.2718C103.636 30.3525 99.692 26.4082 94.7727 26.4082ZM94.7727 88.4537H23.8636V61.8627H94.7727V88.4537ZM94.7727 44.1355H23.8636V35.2718H94.7727V44.1355Z" fill="#A36FD7"/>
<circle id="Check BG" cx="97.6805" cy="91.3621" r="22.6805" fill="#56B2BD"/>
<path id="Vector_2" d="M93.5698 103.09L81.2561 90.8625L85.9153 86.2361L93.5698 93.8367L107.88 79.627L112.54 84.2534L93.5698 103.09Z" fill="white"/>
</g>
</g>
</svg>
