<svg width="24" height="24" viewBox="0 0 24 24" fill="none" xmlns="http://www.w3.org/2000/svg">
<path d="M11.7483 16.9213L12.4921 16.6554L11.9335 16.0969L7.40353 11.5669L6.84502 11.0084L6.57915 11.7522L4.05915 18.8022L3.70362 19.7968L4.69828 19.4413L11.7483 16.9213ZM14.9964 6.85692L11.76 10.0934L11.4071 9.74047L14.6435 6.50402C15.3208 5.82677 15.3156 4.71294 14.6472 4.03058L14.6472 4.03056L14.6435 4.02692L13.4071 2.79047L13.76 2.43758L14.9964 3.67402C15.8712 4.54876 15.8712 5.98218 14.9964 6.85692ZM6.43511 9.18271L14.3177 17.0653L2.05587 21.4446L6.43511 9.18271ZM18.9964 6.85691L13.76 12.0934L13.4071 11.7405L18.6435 6.50402C19.5183 5.62928 20.9517 5.62928 21.8264 6.50402L22.0629 6.74047L21.71 7.09336L21.4735 6.85691C20.7883 6.17165 19.6817 6.17165 18.9964 6.85691ZM9.76164 4.43924L9.99643 4.67402C10.8712 5.54876 10.8712 6.98218 9.99643 7.85692L9.75998 8.09336L9.40709 7.74047L9.64353 7.50402C10.3188 6.82876 10.3188 5.71218 9.64353 5.03692L9.40543 4.79881L9.76164 4.43924ZM19.8281 12.5057L21.0829 13.7605L20.73 14.1134L19.4735 12.8569C18.7883 12.1717 17.6817 12.1717 16.9964 12.8569L15.76 14.0934L15.4071 13.7405L16.6435 12.504C17.5171 11.6304 18.9413 11.6278 19.8274 12.505C19.8276 12.5052 19.8278 12.5054 19.8281 12.5057Z" fill="#007BC3" stroke="#007BC3"/>
</svg>
