<svg width="120" height="121" viewBox="0 0 120 121" fill="none" xmlns="http://www.w3.org/2000/svg">
<g id="Ilustraci&#195;&#179;n">
<circle id="BG" opacity="0.8" cx="60" cy="60.5" r="60" fill="#E2F4FF"/>
<g id="Group">
<path id="Vector" d="M84.5465 16.8633H10.9102V110.954H84.5465V16.8633Z" fill="#56B2BD"/>
<path id="Vector_2" d="M76.3665 25.0449H19.0938V102.772H76.3665V25.0449Z" fill="white"/>
<path id="Vector_3" d="M64.0906 12.7725H31.3633V29.1361H64.0906V12.7725Z" fill="#BA93E1"/>
<path id="Vector_4" d="M88.6381 119.136C99.9349 119.136 109.093 109.978 109.093 98.6811C109.093 87.3844 99.9349 78.2266 88.6381 78.2266C77.3414 78.2266 68.1836 87.3844 68.1836 98.6811C68.1836 109.978 77.3414 119.136 88.6381 119.136Z" fill="#A36FD7"/>
<path id="Vector_5" d="M92.7287 83.6816H84.5469V102.773H92.7287V83.6816Z" fill="white"/>
<path id="Vector_6" d="M92.7287 105.5H84.5469V113.682H92.7287V105.5Z" fill="white"/>
<path id="Vector_7" d="M68.1825 40.0449H27.2734V48.2267H68.1825V40.0449Z" fill="#D1B7EB"/>
<path id="Vector_8" d="M68.1825 56.4092H27.2734V64.591H68.1825V56.4092Z" fill="#D1B7EB"/>
<path id="Vector_9" d="M68.1825 72.7725H27.2734V80.9543H68.1825V72.7725Z" fill="#D1B7EB"/>
</g>
</g>
</svg>
