<svg width="20" height="14" viewBox="0 0 20 14" fill="none" xmlns="http://www.w3.org/2000/svg">
<path d="M10 1.81818C13.4455 1.81818 16.5182 3.75455 18.0182 6.81818C16.5182 9.88182 13.4455 11.8182 10 11.8182C6.55455 11.8182 3.48182 9.88182 1.98182 6.81818C3.48182 3.75455 6.55455 1.81818 10 1.81818ZM10 0C5.45455 0 1.57273 2.82727 0 6.81818C1.57273 10.8091 5.45455 13.6364 10 13.6364C14.5455 13.6364 18.4273 10.8091 20 6.81818C18.4273 2.82727 14.5455 0 10 0ZM10 4.54545C11.2545 4.54545 12.2727 5.56364 12.2727 6.81818C12.2727 8.07273 11.2545 9.09091 10 9.09091C8.74545 9.09091 7.72727 8.07273 7.72727 6.81818C7.72727 5.56364 8.74545 4.54545 10 4.54545ZM10 2.72727C7.74545 2.72727 5.90909 4.56364 5.90909 6.81818C5.90909 9.07273 7.74545 10.9091 10 10.9091C12.2545 10.9091 14.0909 9.07273 14.0909 6.81818C14.0909 4.56364 12.2545 2.72727 10 2.72727Z" fill="#007BC3"/>
</svg>
