<svg width="120" height="121" viewBox="0 0 120 121" fill="none" xmlns="http://www.w3.org/2000/svg">
<g id="Ilustraci&#195;&#179;n">
<circle id="BG" opacity="0.8" cx="60" cy="60.5" r="60" fill="#E2F4FF"/>
<g id="Group ">
<g id="Person">
<path id="Vector" d="M90.9097 75.9538V95.2719H29.0918V75.9538L52.2735 68.2266H67.728L90.9097 75.9538Z" fill="#007BC3"/>
<path id="Vector_2" d="M63.8643 75.9538L67.7279 95.2719H52.2734L56.1371 75.9538L52.2734 68.2266H67.7279L63.8643 75.9538Z" fill="#BA93E1"/>
<path id="Vector_3" d="M71.591 25.7275H55.4797C53.432 25.7275 51.4616 26.5389 50.032 28.0071L48.4479 29.5912C45.3184 29.5912 40.7207 32.0252 40.7207 37.3184V48.9092H79.3569V33.4548C79.3569 29.2048 75.8796 25.7275 71.6296 25.7275H71.591Z" fill="#007BC3"/>
<path id="Vector_4" d="M59.9994 72.0923C51.4608 72.0923 44.5449 65.1765 44.5449 56.6379V46.6311C44.5449 41.7629 50.4563 39.3675 53.8562 42.7675C55.2085 44.1197 57.1403 45.047 59.3039 45.047H75.4152V56.6379C75.4152 65.1765 68.4994 72.0923 59.9608 72.0923H59.9994Z" fill="#E2F4FF"/>
<path id="Vector_5" d="M42.6138 45.0459H48.4092V56.6368H42.6138C39.407 56.6368 36.8184 54.0481 36.8184 50.8413C36.8184 47.6345 39.407 45.0459 42.6138 45.0459Z" fill="#E2F4FF"/>
<path id="Vector_6" d="M77.3862 56.6367H75.4544V45.0459H77.3862C80.593 45.0459 83.1816 47.6345 83.1816 50.8413C83.1816 54.0481 80.593 56.6367 77.3862 56.6367Z" fill="#E2F4FF"/>
</g>
<path id="Union" fill-rule="evenodd" clip-rule="evenodd" d="M11.5918 41.7589H20.5122V21.0113H37.3962V12.0908H11.5918V41.7589ZM106.36 39.7521H106.36V14.1363H106.36V39.7521ZM99.4852 21.0113V41.7975H108.406V12.0908H82.6175L82.5462 21.0113H99.4852ZM20.5122 99.9882V79.2406H11.5918V108.909H37.3962V99.9882H20.5122ZM106.36 81.2474V106.863H106.36V81.2474H106.36ZM108.406 79.202H99.4852V99.9882H82.5462L82.6175 108.909H108.406V79.202Z" fill="#56B2BD"/>
</g>
</g>
</svg>
