<svg width="25" height="25" viewBox="0 0 25 25" fill="none" xmlns="http://www.w3.org/2000/svg">
<path d="M24.5455 14.3182V10.2273H22.2955C22.0909 9 21.4773 7.77273 20.8636 6.54545L22.5 5.11364L19.6364 2.25L18 3.88636C16.7727 3.06818 15.5455 2.45455 14.3182 2.25V0H10.2273V2.25C9 2.45455 7.77273 3.06818 6.54545 3.68182L5.11364 2.25L2.25 5.11364L3.88636 6.75C3.06818 7.77273 2.45455 9 2.25 10.2273H0V14.3182H2.25C2.45455 15.5455 3.06818 16.7727 3.68182 18L2.04545 19.6364L4.90909 22.5L6.54545 20.8636C7.56818 21.4773 8.79545 22.0909 10.2273 22.2955V24.5455H14.3182V22.2955C15.5455 22.0909 16.7727 21.4773 18 20.8636L19.6364 22.5L22.5 19.6364L20.8636 18C21.4773 16.9773 22.0909 15.75 22.2955 14.3182H24.5455Z" fill="white"/>
<path d="M12.2725 16.3637C14.5319 16.3637 16.3635 14.5321 16.3635 12.2728C16.3635 10.0134 14.5319 8.18188 12.2725 8.18188C10.0132 8.18188 8.18164 10.0134 8.18164 12.2728C8.18164 14.5321 10.0132 16.3637 12.2725 16.3637Z" fill="#BA93E1"/>
</svg>
