<svg width="72" height="72" viewBox="0 0 72 72" fill="none" xmlns="http://www.w3.org/2000/svg">
<circle opacity="0.8" cx="36" cy="36" r="36" fill="#E2F4FF"/>
<path d="M55.624 26.0898C55.624 14.5534 45.5603 5.22614 33.7785 6.69887C17.3331 8.41705 10.2149 29.0352 22.7331 40.5716C26.4149 44.008 27.6422 46.9534 28.624 50.6352H43.3513C44.3331 46.9534 45.5603 43.7625 49.2422 40.5716C53.1694 37.1352 55.624 31.7352 55.624 26.0898Z" fill="#BA93E1"/>
<path d="M45.8063 50.6353H26.1699V57.9989H45.8063V50.6353Z" fill="#80C5CE"/>
<path d="M35.9877 65.3627C31.8149 65.3627 28.624 62.1718 28.624 57.999H43.3513C43.3513 62.1718 40.1604 65.3627 35.9877 65.3627Z" fill="#56B2BD"/>
<path d="M35.9874 30.999C38.2467 30.999 40.0783 29.1674 40.0783 26.908C40.0783 24.6487 38.2467 22.8171 35.9874 22.8171C33.728 22.8171 31.8965 24.6487 31.8965 26.908C31.8965 29.1674 33.728 30.999 35.9874 30.999Z" fill="#BA93E1"/>
</svg>
