<svg width="20" height="16" viewBox="0 0 20 16" fill="none" xmlns="http://www.w3.org/2000/svg">
<path d="M0.41 2.00033V2C0.41 1.1183 1.12352 0.4 2 0.4H18C18.8791 0.4 19.6 1.12091 19.6 2V14C19.6 14.8791 18.8791 15.6 18 15.6H2C1.12096 15.6 0.40008 14.8792 0.4 14.0001C0.4 14.0001 0.4 14 0.4 14L0.41 2.00033ZM18 14.4H18.4V14V4V3.2783L17.788 3.6608L10 8.5283L2.212 3.6608L1.6 3.2783V4V14V14.4H2H18ZM9.788 7.3392L10 7.4717L10.212 7.3392L18.212 2.3392L19.3947 1.6H18H2H0.605281L1.788 2.3392L9.788 7.3392Z" fill="#007BC3" stroke="#007BC3" stroke-width="0.8"/>
</svg>
