<svg width="21" height="21" viewBox="0 0 21 21" fill="none" xmlns="http://www.w3.org/2000/svg">
<rect width="21" height="21" rx="10.5" fill="#41A5A4"/>
<path d="M9.609 8.67C9.49167 8.362 9.31567 8.11267 9.081 7.922C8.84633 7.73133 8.54933 7.636 8.19 7.636C7.86 7.636 7.58867 7.70567 7.376 7.845C7.16333 7.98433 7.057 8.208 7.057 8.516C7.057 8.74333 7.156 8.934 7.354 9.088C7.55933 9.23467 7.81233 9.374 8.113 9.506C8.421 9.63067 8.751 9.759 9.103 9.891C9.455 10.023 9.78133 10.188 10.082 10.386C10.39 10.5767 10.643 10.815 10.841 11.101C11.0463 11.387 11.149 11.7427 11.149 12.168C11.149 12.9893 10.907 13.6017 10.423 14.005C9.939 14.4083 9.25333 14.61 8.366 14.61C8.04333 14.61 7.728 14.566 7.42 14.478C7.112 14.39 6.826 14.2653 6.562 14.104C6.298 13.9427 6.06333 13.7447 5.858 13.51C5.66 13.2753 5.506 13.015 5.396 12.729L6.65 12.179C6.83333 12.553 7.05333 12.8537 7.31 13.081C7.574 13.3083 7.92967 13.422 8.377 13.422C8.56767 13.422 8.74367 13.4037 8.905 13.367C9.06633 13.3303 9.20567 13.2717 9.323 13.191C9.44767 13.103 9.543 12.993 9.609 12.861C9.68233 12.7217 9.719 12.5567 9.719 12.366C9.719 12.1093 9.61633 11.8967 9.411 11.728C9.213 11.552 8.96 11.3943 8.652 11.255C8.35133 11.1157 8.025 10.98 7.673 10.848C7.321 10.716 6.991 10.5583 6.683 10.375C6.38233 10.1843 6.12933 9.957 5.924 9.693C5.726 9.42167 5.627 9.08067 5.627 8.67C5.627 8.318 5.69667 8.00267 5.836 7.724C5.97533 7.44533 6.16233 7.21433 6.397 7.031C6.63167 6.84033 6.903 6.69733 7.211 6.602C7.519 6.49933 7.84533 6.448 8.19 6.448C8.828 6.448 9.39633 6.602 9.895 6.91C10.3937 7.218 10.7603 7.66167 10.995 8.241L9.609 8.67ZM13.1156 14.61H11.9166L14.3916 6.448H15.5906L13.1156 14.61Z" fill="white"/>
</svg>
