<svg width="24" height="24" viewBox="0 0 24 24" fill="none" xmlns="http://www.w3.org/2000/svg">
<rect width="24" height="24" rx="12" fill="#83B36E"/>
<path d="M11.393 12.513C11.085 12.447 10.788 12.3517 10.502 12.227C10.216 12.1023 9.963 11.9483 9.743 11.765C9.53033 11.5817 9.358 11.369 9.226 11.127C9.10133 10.885 9.039 10.61 9.039 10.302C9.039 9.93533 9.10133 9.61267 9.226 9.334C9.358 9.05533 9.53033 8.82433 9.743 8.641C9.963 8.45033 10.216 8.30733 10.502 8.212C10.788 8.11667 11.085 8.06533 11.393 8.058V7.266H12.207V8.058C12.6323 8.07267 13.021 8.168 13.373 8.344C13.7323 8.52 14.0953 8.78767 14.462 9.147L13.604 9.994C13.384 9.78133 13.1677 9.60167 12.955 9.455C12.7497 9.301 12.5003 9.202 12.207 9.158V11.358C12.5957 11.4753 12.9403 11.6073 13.241 11.754C13.5417 11.9007 13.7947 12.073 14 12.271C14.2127 12.469 14.3703 12.7 14.473 12.964C14.583 13.2207 14.638 13.5213 14.638 13.866C14.638 14.2327 14.572 14.548 14.44 14.812C14.3153 15.0687 14.143 15.285 13.923 15.461C13.703 15.6297 13.4427 15.758 13.142 15.846C12.8487 15.934 12.537 15.9853 12.207 16V17.32H11.393V16C10.909 15.9487 10.458 15.8203 10.04 15.615C9.62933 15.4097 9.27 15.1017 8.962 14.691L9.908 13.877C10.1133 14.185 10.3297 14.416 10.557 14.57C10.7917 14.7167 11.0703 14.8267 11.393 14.9V12.513ZM11.393 9.158C11.0557 9.18 10.7843 9.27167 10.579 9.433C10.3737 9.587 10.271 9.84367 10.271 10.203C10.271 10.4597 10.359 10.654 10.535 10.786C10.711 10.9107 10.997 11.028 11.393 11.138V9.158ZM12.207 14.9C12.3463 14.9 12.4857 14.8853 12.625 14.856C12.7717 14.8267 12.9037 14.7753 13.021 14.702C13.1383 14.6213 13.23 14.5187 13.296 14.394C13.3693 14.262 13.406 14.097 13.406 13.899C13.406 13.5763 13.296 13.3307 13.076 13.162C12.856 12.986 12.5663 12.8503 12.207 12.755V14.9Z" fill="white"/>
</svg>
