<svg width="40" height="40" viewBox="0 0 40 40" fill="none" xmlns="http://www.w3.org/2000/svg">
<rect width="40" height="40" rx="20" fill="#E2F4FF"/>
<path d="M19.7483 24.9213L20.4921 24.6554L19.9335 24.0969L15.4035 19.5669L14.845 19.0084L14.5792 19.7522L12.0592 26.8022L11.7036 27.7968L12.6983 27.4413L19.7483 24.9213ZM22.9964 14.8569L19.76 18.0934L19.4071 17.7405L22.6435 14.504C23.3208 13.8268 23.3156 12.7129 22.6472 12.0306L22.6472 12.0306L22.6435 12.0269L21.4071 10.7905L21.76 10.4376L22.9964 11.674C23.8712 12.5488 23.8712 13.9822 22.9964 14.8569ZM14.4351 17.1827L22.3177 25.0653L10.0559 29.4446L14.4351 17.1827ZM26.9964 14.8569L21.76 20.0934L21.4071 19.7405L26.6435 14.504C27.5183 13.6293 28.9517 13.6293 29.8264 14.504L30.0629 14.7405L29.71 15.0934L29.4735 14.8569C28.7883 14.1717 27.6817 14.1717 26.9964 14.8569ZM17.7616 12.4392L17.9964 12.674C18.8712 13.5488 18.8712 14.9822 17.9964 15.8569L17.76 16.0934L17.4071 15.7405L17.6435 15.504C18.3188 14.8288 18.3188 13.7122 17.6435 13.0369L17.4054 12.7988L17.7616 12.4392ZM27.8281 20.5057L29.0829 21.7605L28.73 22.1134L27.4735 20.8569C26.7883 20.1717 25.6817 20.1717 24.9964 20.8569L23.76 22.0934L23.4071 21.7405L24.6435 20.504C25.5171 19.6304 26.9413 19.6278 27.8274 20.505C27.8276 20.5052 27.8278 20.5054 27.8281 20.5057Z" fill="#007BC3" stroke="#007BC3"/>
</svg>
