<svg width="120" height="121" viewBox="0 0 120 121" fill="none" xmlns="http://www.w3.org/2000/svg">
<circle opacity="0.8" cx="60" cy="60.5" r="60" fill="#E2F4FF"/>
<path d="M106.364 48.9092H13.6367V106.864H106.364V48.9092Z" fill="#BA93E1"/>
<path d="M105.863 48.9091C86.7761 61.7364 97.092 54.7818 60.0011 79.8182C59.5375 79.8182 60.0398 79.7795 14.0625 48.9091C32.9557 36.2364 22.9489 42.9591 59.9625 18C97.1693 43.075 86.7761 36.0818 105.863 48.9091Z" fill="#A36FD7"/>
<path d="M90.908 14.1367V58.9549L59.9989 79.8185C59.6126 79.8185 60.4239 80.1276 29.0898 58.9935V14.1367H90.908Z" fill="#56B2BD"/>
<path d="M14.0625 106.864L59.9625 75.9551L106.365 106.864H14.0625Z" fill="#A36FD7"/>
<path d="M58.0692 33.4552H71.592V25.7279H63.8647V21.8643H56.1374V25.9211C51.7329 26.8097 48.4102 30.712 48.4102 35.387C48.4102 40.7188 52.7374 45.0461 58.0692 45.0461H61.9329C63.0147 45.0461 63.8647 45.8961 63.8647 46.9779C63.8647 48.0597 63.0147 48.9097 61.9329 48.9097H48.4102V56.637H56.1374V60.5006H63.8647V56.4438C68.2692 55.5552 71.592 51.6529 71.592 46.9779C71.592 41.6461 67.2647 37.3188 61.9329 37.3188H58.0692C56.9874 37.3188 56.1374 36.4688 56.1374 35.387C56.1374 34.3052 56.9874 33.4552 58.0692 33.4552Z" fill="white"/>
</svg>
