<svg width="34" height="32" viewBox="0 0 34 32" fill="none" xmlns="http://www.w3.org/2000/svg">
<g clip-path="url(#clip0_2050_31585)">
<path d="M25.6505 19.1254L24.5753 19.3138L24.8579 17.1674L24.5753 16.7475L24.8579 14.3225L27.6086 15.4448L25.6505 19.1294V19.1254ZM30.0336 25.5608H26.4431L29.8492 20.2006L30.8733 16.7004L33.0197 17.446C32.8314 20.1496 31.9446 22.9003 30.0336 25.5608ZM28.774 20.0123L27.4202 21.1777L24.7127 25.5568H22.943L24.7127 22.4334L26.1135 21.2719L28.1226 15.6253L30.269 16.5121L28.774 20.0123ZM24.1555 9.09577L17.0178 4.94421L14.4083 4.47725V6.38823L16.4135 8.25604L13.6157 8.0206C13.6157 8.0206 13.7059 8.16186 16.0407 10.634L26.6747 12.4037L28.5425 13.6162L23.6924 13.8516L21.6873 21.1738L15.1107 25.5529H10.8218L12.2658 22.712L12.0343 22.6178L8.16136 25.5529H7.22745L11.1946 20.0044C11.379 18.4191 11.2888 19.1176 11.5203 16.2727L10.916 15.433L9.3307 21.5897L6.01887 25.549H5.17914L7.1372 22.7983L9.8879 14.3578L9.18944 14.6835L7.97693 18.0424L7.1372 18.5094C7.1372 18.5094 5.17914 23.2652 4.15106 25.6C2.65602 23.4614 0.976562 20.5734 0.976562 15.535C0.976562 7.97744 7.45897 0 17.21 0C26.9611 0 31.5757 7.4634 32.4154 11.3364L24.1594 9.09969L24.1555 9.09577ZM21.962 25.5568H19.7214L23.8729 20.3811L24.2928 21.1738L21.962 25.5529V25.5568ZM17.1119 31.9961C13.1448 31.9961 8.29477 30.5952 4.79851 26.3063H29.3822C26.5373 29.9909 21.6402 31.9961 17.1159 31.9961M17.21 1.02416C8.06718 1.02808 2.09489 8.53856 2.09489 15.535C2.09489 19.5492 3.07589 21.5505 4.14713 23.4654C5.5009 19.8278 8.20452 12.596 8.20452 12.596C8.20452 12.596 9.46412 11.9446 9.46412 12.0348L11.2809 7.41631L12.4463 6.80809L13.8943 3.7317L17.0649 4.24574L23.5002 7.83617L30.732 9.84132C28.8721 5.08547 23.5983 1.02808 17.21 1.02808" fill="#007BC3"/>
</g>
<defs>
<clipPath id="clip0_2050_31585">
<rect width="32.0471" height="32" fill="white" transform="translate(0.976562)"/>
</clipPath>
</defs>
</svg>
