<svg width="12" height="20" viewBox="0 0 12 20" fill="none" xmlns="http://www.w3.org/2000/svg">
<path d="M5.50608 10.5925L5.50619 10.5923C5.84866 9.97407 6.35665 9.4688 6.9302 8.93648C6.9922 8.87894 7.05521 8.82089 7.11888 8.76223C7.62461 8.2963 8.17217 7.79183 8.58802 7.19732C9.14461 6.4076 9.26124 5.29709 8.85518 4.37478C8.43198 3.41353 7.46887 2.71 5.99882 2.71C4.26965 2.71 3.3216 3.84847 2.85012 4.89023L1.17726 4.18621C1.93258 2.42172 3.61731 1 5.98882 1C8.17376 1 9.61751 1.98696 10.342 3.1704C10.648 3.67329 10.9022 4.41902 10.9523 5.22239C11.0022 6.02233 10.8482 6.84274 10.3848 7.52966C9.81512 8.36989 9.2587 8.91795 8.74848 9.41208C8.72688 9.43299 8.70529 9.45387 8.6837 9.47475C8.20346 9.93925 7.7277 10.3994 7.38958 11.0211L7.38951 11.0212C7.24941 11.279 7.1366 11.5216 7.06774 11.9103C7.019 12.1854 6.99314 12.5283 6.98342 13H5.07797C5.06196 12.2467 5.07459 11.3706 5.50608 10.5925ZM7.49882 17.5C7.49882 18.3239 6.82268 19 5.99882 19C5.17496 19 4.49882 18.3239 4.49882 17.5C4.49882 16.6761 5.17496 16 5.99882 16C6.82268 16 7.49882 16.6761 7.49882 17.5Z" fill="#007BC3" stroke="#007BC3"/>
</svg>
