<svg width="120" height="121" viewBox="0 0 120 121" fill="none" xmlns="http://www.w3.org/2000/svg">
<circle opacity="0.8" cx="60" cy="60.5" r="60" fill="#E2F4FF"/>
<path d="M106.364 68.2271V52.7726H97.864C96.7049 47.7499 94.7731 43.1135 92.0685 39.2499L98.2504 33.068L87.4322 22.2499L81.2504 28.4317C77.3867 25.7271 72.7504 23.7953 67.7276 22.6362V14.1362H52.2731V22.6362C47.2504 23.7953 42.614 25.7271 38.7504 28.4317L32.5685 22.2499L21.7504 33.068L27.9322 39.2499C25.2276 43.1135 23.2958 47.7499 22.1367 52.7726H13.6367V68.2271H22.1367C23.2958 73.2499 25.2276 77.8862 27.9322 81.7499L21.7504 87.9317L32.5685 98.7499L38.7504 92.568C42.614 95.2726 47.2504 97.2044 52.2731 98.3635V106.864H67.7276V98.3635C72.7504 97.2044 77.3867 95.2726 81.2504 92.568L87.4322 98.7499L98.2504 87.9317L92.0685 81.7499C94.7731 77.8862 96.7049 73.2499 97.864 68.2271H106.364Z" fill="#BA93E1"/>
<path d="M60.0002 83.6815C72.8031 83.6815 83.182 73.3027 83.182 60.4997C83.182 47.6967 72.8031 37.3179 60.0002 37.3179C47.1972 37.3179 36.8184 47.6967 36.8184 60.4997C36.8184 73.3027 47.1972 83.6815 60.0002 83.6815Z" fill="#80C5CE"/>
<path d="M56.1369 73.6361L45.7051 63.2042L51.1142 57.7951L56.1369 62.8179L68.8869 50.0679L74.296 55.477L56.1369 73.6361Z" fill="white"/>
</svg>
