<svg width="120" height="121" viewBox="0 0 120 121" fill="none" xmlns="http://www.w3.org/2000/svg">
<circle opacity="0.8" cx="60" cy="60.5" r="60" fill="#E2F4FF"/>
<path d="M52.2731 37.3181L36.8185 52.7726L25.2276 41.1817L17.5004 48.909L13.6367 14.1362L48.4094 17.9999L40.6822 25.7271L52.2731 37.3181Z" fill="#56B2BD"/>
<path d="M83.1821 52.7726L67.7275 37.3181L79.3184 25.7271L71.5912 17.9999L106.364 14.1362L102.5 48.909L94.773 41.1817L83.1821 52.7726Z" fill="#56B2BD"/>
<path d="M67.7275 83.6816L83.1821 68.2271L94.773 79.818L102.5 72.0907L106.364 106.863L71.5912 103L79.3184 95.2725L67.7275 83.6816Z" fill="#56B2BD"/>
<path d="M36.8185 68.2271L52.2731 83.6816L40.6822 95.2725L48.4094 103L13.6367 106.863L17.5004 72.0907L25.2276 79.818L36.8185 68.2271Z" fill="#56B2BD"/>
<path d="M60.0003 95.2725C79.2047 95.2725 94.773 79.7042 94.773 60.4998C94.773 41.2953 79.2047 25.7271 60.0003 25.7271C40.7958 25.7271 25.2275 41.2953 25.2275 60.4998C25.2275 79.7042 40.7958 95.2725 60.0003 95.2725Z" fill="#BA93E1"/>
<path d="M60.0005 87.5455C74.9373 87.5455 87.046 75.4368 87.046 60.5C87.046 45.5633 74.9373 33.4546 60.0005 33.4546C45.0637 33.4546 32.9551 45.5633 32.9551 60.5C32.9551 75.4368 45.0637 87.5455 60.0005 87.5455Z" fill="#A36FD7"/>
<path d="M58.0683 52.7726H71.591V45.0453H63.8637V41.1816H56.1365V45.4316C51.8865 46.2044 48.4092 50.068 48.4092 54.7044C48.4092 60.1135 52.6592 64.3635 58.0683 64.3635H61.9319C63.091 64.3635 63.8637 65.1362 63.8637 66.2953C63.8637 67.4544 63.091 68.2271 61.9319 68.2271H48.4092V75.9544H56.1365V79.818H63.8637V75.568C68.1137 74.7953 71.591 70.9316 71.591 66.2953C71.591 60.8862 67.341 56.6362 61.9319 56.6362H58.0683C56.9092 56.6362 56.1365 55.8635 56.1365 54.7044C56.1365 53.5453 56.9092 52.7726 58.0683 52.7726Z" fill="white"/>
</svg>
