<svg width="120" height="121" viewBox="0 0 120 121" fill="none" xmlns="http://www.w3.org/2000/svg">
<circle opacity="0.8" cx="60" cy="60.5" r="60" fill="#E2F4FF"/>
<path d="M85.9087 14.1367V106.864H16.3633V37.3185L39.5451 14.1367H85.9087Z" fill="#BA93E1"/>
<path d="M98.6448 75.0022L87.7168 64.0742L74.0568 77.7342L84.9848 88.6623L98.6448 75.0022Z" fill="#A36FD7"/>
<path d="M74.0479 77.7314L71.3047 91.4087L84.982 88.6655L74.0479 77.7314Z" fill="#E8DBF5"/>
<path d="M104.09 69.5843L93.1621 58.6562L87.6981 64.1203L98.6261 75.0483L104.09 69.5843Z" fill="#56B2BD"/>
<path d="M104.106 69.54L93.1719 58.6059L95.9151 55.8628C98.9287 52.8491 103.836 52.8491 106.849 55.8628C109.051 58.065 110.597 63.0491 106.849 66.7969L104.106 69.54Z" fill="#80C5CE"/>
<path d="M39.5451 14.1367V37.3185H16.3633L39.5451 14.1367Z" fill="#A36FD7"/>
<path d="M74.3187 48.9092H27.9551V56.6365H74.3187V48.9092Z" fill="white"/>
<path d="M74.3187 64.3643H27.9551V72.0915H74.3187V64.3643Z" fill="white"/>
<path d="M62.7278 79.8184H27.9551V87.5456H62.7278V79.8184Z" fill="white"/>
</svg>
