<svg width="120" height="121" viewBox="0 0 120 121" fill="none" xmlns="http://www.w3.org/2000/svg">
<circle opacity="0.8" cx="60" cy="60.5" r="60" fill="#E2F4FF"/>
<path d="M106.364 48.9092H13.6362V106.864H106.364V48.9092Z" fill="#BA93E1"/>
<path d="M105.977 48.9086C87.0452 61.6586 97.0906 54.7041 59.9997 79.8177C59.6134 79.8177 59.9997 79.8177 14.0225 48.9086C32.9543 36.1586 22.9088 43.1131 59.9997 17.9995C97.0906 43.1131 86.6588 36.1586 105.977 48.9086Z" fill="#A36FD7"/>
<path d="M90.909 14.1362V58.9544L59.9999 79.818C59.6135 79.818 60.3863 80.2044 29.0908 58.9544V14.1362H90.909Z" fill="#56B2BD"/>
<path d="M56.1363 54.318L41.8408 40.0226L47.2499 34.6135L56.1363 43.4999L72.7499 26.8862L78.159 32.2953L56.1363 54.318Z" fill="white"/>
<path d="M14.0225 106.863L59.9997 75.9541L106.363 106.863C73.5225 106.863 46.0906 106.863 14.0225 106.863Z" fill="#A36FD7"/>
</svg>
