<svg width="208" height="40" viewBox="0 0 208 40" fill="none" xmlns="http://www.w3.org/2000/svg">
<g clip-path="url(#clip0_1005_396)">
<mask id="mask0_1005_396" style="mask-type:luminance" maskUnits="userSpaceOnUse" x="0" y="0" width="208" height="41">
<path d="M207.294 0H0.1521V40.1493H207.294V0Z" fill="white"/>
</mask>
<g mask="url(#mask0_1005_396)">
<path d="M20.5444 1.28706C9.0566 1.28706 1.55746 10.71 1.55746 19.4923C1.55746 24.524 2.78788 27.0399 4.13491 29.4393C5.83183 24.8734 9.23152 15.8 9.23152 15.8C9.23152 15.8 10.8118 14.9788 10.8118 15.0953L13.0977 9.30059L14.5614 8.53769L16.375 4.6765L20.3578 5.32294L28.4459 9.83056L37.5311 12.3465C35.1986 6.37705 28.5742 1.28706 20.5444 1.28706ZM20.4278 40.1493C15.4478 40.1493 9.35399 38.3962 4.95715 33.0093H35.8402C32.2654 37.6334 26.1133 40.1493 20.4278 40.1493ZM26.5215 32.0717H23.7108L28.9241 25.5781L29.4489 26.574L26.5215 32.0717ZM29.2798 11.4146L20.3111 6.20818L17.0281 5.6258V8.0252L19.5472 10.3664L16.0309 10.0752C16.0309 10.0752 16.1475 10.2499 19.0807 13.354L32.4404 15.5787L34.7846 17.0987L28.6908 17.3899L26.1717 26.5798L17.9086 32.0833H12.5146L14.334 28.5133L14.0424 28.3968L9.17904 32.0833H8.00697L12.9869 25.118C13.2202 23.1263 13.1036 24.0057 13.3951 20.4357L12.6312 19.3816L10.6369 27.1098L6.47913 32.0833H5.42366L7.88449 28.6298L11.3425 18.0363L10.462 18.444L8.93996 22.6604L7.88449 23.2428C7.88449 23.2428 5.42366 29.2122 4.13491 32.1415C2.26306 29.4393 0.1521 25.8111 0.1521 19.4923C0.1521 10.0053 8.29853 0 20.5444 0C32.3237 0 38.5924 9.36465 39.648 14.2217L29.2798 11.4146ZM35.082 25.1064L33.3851 26.5681L29.9853 32.0717H27.7578L29.9853 28.1522L31.7464 26.6904L34.2656 19.6087L36.9597 20.7211L35.082 25.1064ZM36.6623 32.0717H32.1488L36.4289 25.3393L37.7176 20.9482L40.4119 21.8858C40.1784 25.2811 39.0649 28.7346 36.6623 32.0717ZM31.1516 23.994L29.8046 24.227L30.1545 21.5364L29.8046 21.0123L30.1545 17.9664L33.6125 19.37L31.1516 23.994Z" fill="#007BC3"/>
<path d="M59.148 13.8435H57.7428V23.3538H59.148C62.4019 23.3538 62.9849 21.0418 62.9849 18.6715C62.9849 16.3012 62.3962 13.8435 59.148 13.8435ZM102.918 24.6117C102.918 22.917 102.685 20.0167 100.486 20.0167C97.9965 20.0167 97.9674 24.1691 97.9674 26.1317C97.9674 27.8265 98.0839 31.8391 100.399 31.8391C101.28 31.8391 102.009 31.2858 102.364 30.4646C102.597 29.8764 102.918 29.0029 102.918 27.4479V24.6117ZM115.52 19.6382C113.117 19.6382 113.088 23.3829 113.03 24.7573H117.835C117.864 23.2664 117.747 19.6382 115.52 19.6382ZM162.311 25.5493C159.704 26.0444 158.269 26.7199 158.269 29.3814C158.269 30.9306 159.062 31.7226 159.937 31.7226C161.168 31.7226 161.605 30.9888 161.873 30.4646C162.165 29.9405 162.311 28.799 162.311 27.7449V25.5493ZM59.148 24.3205H57.7428V30.2899C57.7428 30.9014 57.8011 31.4023 58.0924 31.7226C58.355 31.9847 58.8272 32.1302 59.6728 32.1302H60.4076V33.0096H51.1182V32.1302H51.9403C52.6403 32.1302 53.229 32.0138 53.5207 31.7808C53.8124 31.5188 53.9581 31.0761 53.9581 30.2899V15.8644C53.9581 14.9267 53.8124 14.2861 53.3399 14.0532C53.0485 13.8785 52.4886 13.8494 51.7304 13.8494H51.1182V12.9699H59.148C63.2475 12.9699 66.7931 14.4317 66.7931 18.6773C66.7931 22.7073 63.3058 24.3205 59.148 24.3205ZM76.2281 22.3288C75.2017 22.3288 74.5895 21.595 74.5895 21.0126C74.5895 20.8088 74.5895 20.5758 74.7352 20.2497H74.706C73.3008 21.4203 72.98 25.8697 72.98 27.5935V29.7017C72.98 30.6103 72.98 31.3382 73.2425 31.7226C73.5047 32.1011 74.1812 32.1302 74.5604 32.1302H75.8782V33.0096H66.6179V32.1302H67.4984C68.4374 32.1302 68.9039 31.9847 69.137 31.6061C69.4578 31.082 69.3996 29.6784 69.3996 29.6784V24.3205C69.3996 22.5676 69.3413 21.2514 69.137 20.7797C68.9039 20.2788 68.554 20.1623 67.7609 20.1623H67.4401V19.2829H72.42L72.566 22.7947H72.5952C72.7408 21.1 73.7382 18.8753 76.0238 18.8753C77.2543 18.8753 78.0182 19.4635 78.0182 20.5991C78.0125 21.4785 77.3712 22.3579 76.2281 22.3288ZM88.0658 33.0096L88.0075 30.8723C88.0075 30.8723 87.9784 30.9597 87.9784 30.8723C87.6284 31.9847 86.1297 33.4173 84.1411 33.4173C80.829 33.4173 80.1002 31.4838 80.1002 28.9388V23.0335C80.1002 21.3096 80.0416 20.6632 79.9251 20.4885C79.8377 20.3429 79.692 20.1682 78.9281 20.1682H78.7238V19.2888H83.7037V29.3232C83.7037 31.5188 84.905 31.577 85.4884 31.577C86.4854 31.577 87.2784 30.6976 87.5701 29.527C87.7449 28.8515 87.7449 28.0943 87.7449 27.3314V23.0277C87.7449 21.8279 87.7741 20.8321 87.5119 20.5409C87.2784 20.2788 86.9519 20.1623 86.048 20.1623H85.7567V19.2829H91.3253V29.7017C91.3253 30.6103 91.3836 31.3382 91.6462 31.7226C91.9087 32.1011 92.3227 32.1302 92.7309 32.1302H93.2557V33.0096H88.0658ZM103.303 33.0096L103.245 30.8723C102.982 31.7808 101.664 33.4173 99.4078 33.4173C95.0692 33.4173 93.9262 29.4688 93.9262 26.1317C93.9262 22.8238 95.9205 18.8753 99.8743 18.8753C101.839 18.8753 102.627 19.6673 102.924 20.2497V15.975C102.924 15.2121 102.924 14.6588 102.487 14.2221C102.224 13.96 101.81 13.8435 101.14 13.8435H100.877V12.9641L106.505 12.5273V30.3773C106.505 31.344 106.65 31.6352 106.884 31.8391C107.146 32.0429 107.648 32.1302 108.172 32.1302H108.551V33.0096H103.303ZM112.995 25.695C112.995 25.695 112.908 27.1276 113.199 28.799C113.491 30.4646 114.196 32.2234 116.161 32.2234C118.884 32.2234 120.179 29.824 120.179 28.3331H121.322C121.322 30.2958 119.415 33.4231 115.666 33.4231C111.275 33.4231 109.105 30.319 109.105 26.1376C109.105 21.8047 111.945 18.8811 115.549 18.8811C119.829 18.8811 121.497 21.9852 121.497 25.7008H112.995V25.695ZM131.894 33.0096V22.7947C131.894 20.7739 130.926 20.6283 130.139 20.6283C129.579 20.6283 128.938 20.9486 128.5 21.6532C128.121 22.2997 127.912 23.4644 127.912 24.6059V29.6668C127.912 30.8374 127.853 31.4197 128.116 31.7168C128.349 31.9788 128.669 32.1244 129.433 32.1244H129.842V33.0038H122.372V32.1244H122.809C123.456 32.1244 123.864 31.9788 124.098 31.7168C124.36 31.4256 124.302 30.8374 124.302 29.6668V22.62C124.302 21.7115 124.331 20.9486 124.069 20.57C123.777 20.1915 123.334 20.1623 122.926 20.1623H122.366V19.2829H127.585L127.643 21.4203H127.672C128.174 20.1332 129.428 18.8753 131.539 18.8753C134.705 18.8753 135.463 20.5991 135.463 23.4703V29.7017C135.463 30.8432 135.434 31.3382 135.696 31.7226C135.959 32.1011 136.46 32.1302 136.839 32.1302H137.399V33.0096H131.894ZM145.93 31.6935C145.347 32.9223 144.234 33.4231 142.56 33.4231C139.598 33.4231 139.102 31.2858 139.102 29.5911V20.1914H136.641V19.2829H136.874C140.07 19.2829 141.767 15.0374 141.767 12.9641H142.677V19.2829H145.429V20.1914H142.735V30.022C142.735 30.9597 142.851 31.8682 143.878 31.8682C144.315 31.8682 144.613 31.6643 144.817 31.344C145.37 30.552 145.347 28.9738 145.347 27.9196H146.432C146.426 29.527 146.31 30.8723 145.93 31.6935ZM146.694 33.0096V32.1302H147.132C147.54 32.1302 148.012 32.1011 148.274 31.7226C148.537 31.344 148.537 30.552 148.537 29.6435V22.2997C148.537 21.7173 148.595 20.8962 148.1 20.4885C147.808 20.2264 147.248 20.1973 146.723 20.1973H146.432V19.2888H152.146V29.6435C152.146 30.552 152.117 31.3382 152.409 31.7226C152.671 32.1011 153.109 32.1302 153.523 32.1302H154.077V33.0096H146.694ZM162.631 33.0096C162.661 33.0096 162.602 30.785 162.573 30.785C162.34 31.9264 160.579 33.4173 158.619 33.4173C155.54 33.4173 154.572 31.2509 154.572 29.8764C154.572 26.6326 157.826 25.5493 162.311 24.67V22.3579C162.311 20.7796 161.64 19.842 159.558 19.842C158.153 19.842 156.952 20.6923 156.777 21.1873V21.2456C156.952 20.9835 157.336 20.8962 157.628 20.8962C158.655 20.8962 159.354 21.4785 159.354 22.5035C159.354 23.2956 158.532 24.1691 157.389 24.1691C156.45 24.1691 155.336 23.5576 155.336 22.1191C155.336 20.1857 157.593 18.8695 160.491 18.8695C163.069 18.8695 165.879 19.6033 165.879 23.61V30.3424C165.879 31.3382 166.025 31.6585 166.258 31.8332C166.521 32.0371 166.871 32.1244 167.256 32.1244H167.547V33.0038H162.631V33.0096ZM150.24 17.1514C149.009 17.1514 148.012 16.1556 148.012 14.9267C148.012 13.6979 149.009 12.7312 150.24 12.7312C151.47 12.7312 152.467 13.6979 152.467 14.9267C152.467 16.1556 151.47 17.1514 150.24 17.1514ZM168.02 33.0096V32.1302H168.194C168.574 32.1302 168.987 32.0429 169.25 31.8391C169.483 31.6352 169.629 31.4314 169.629 30.3773V15.9809C169.629 15.5732 169.629 14.6647 169.192 14.2279C168.929 13.9658 168.434 13.8494 168.107 13.8494H167.582V12.9699L173.21 12.5332V30.3831C173.21 31.3498 173.355 31.6411 173.589 31.8449C173.851 32.0487 174.353 32.1361 174.906 32.1361H175.14V33.0155H168.02V33.0096Z" fill="#007BC3"/>
<path d="M191.152 22.9455H189.811C189.788 22.5961 189.73 22.2815 189.642 21.9904C189.554 21.6992 189.426 21.4429 189.263 21.2275C189.1 21.012 188.89 20.8431 188.639 20.715C188.388 20.5926 188.091 20.5286 187.747 20.5286C187.187 20.5286 186.744 20.6917 186.406 21.0178C186.073 21.3439 185.904 21.7691 185.904 22.2874C185.904 22.7941 186.038 23.2308 186.307 23.5861C186.575 23.9472 186.907 24.2791 187.304 24.5878C187.7 24.8964 188.132 25.1993 188.604 25.4963C189.077 25.7933 189.508 26.1311 189.904 26.5097C190.301 26.8882 190.634 27.325 190.902 27.8258C191.17 28.3267 191.304 28.9382 191.304 29.6545C191.304 30.7436 191.012 31.588 190.429 32.182C189.846 32.776 188.989 33.0731 187.864 33.0731C187.327 33.0731 186.855 32.9799 186.441 32.7935C186.027 32.6072 185.677 32.3451 185.391 32.0131C185.105 31.6812 184.884 31.2793 184.721 30.8134C184.557 30.3475 184.47 29.8408 184.458 29.2818H185.799C185.822 30.0738 186.021 30.6969 186.382 31.157C186.75 31.6171 187.292 31.8442 188.009 31.8442C188.616 31.8442 189.1 31.6579 189.461 31.2793C189.823 30.9008 189.998 30.3534 189.998 29.637C189.998 29.1303 189.864 28.6877 189.595 28.3092C189.327 27.9307 188.995 27.5812 188.598 27.2609C188.202 26.9406 187.77 26.6261 187.298 26.3233C186.825 26.0204 186.394 25.6827 185.998 25.3099C185.601 24.9372 185.268 24.5237 185 24.0636C184.732 23.6036 184.598 23.0561 184.598 22.4097C184.598 21.938 184.674 21.5128 184.831 21.1284C184.989 20.7441 185.204 20.4179 185.49 20.1442C185.776 19.8705 186.114 19.6609 186.511 19.5153C186.907 19.3697 187.351 19.2939 187.828 19.2939C188.797 19.2939 189.572 19.6026 190.161 20.2141C190.767 20.8373 191.088 21.7458 191.152 22.9455Z" fill="#007BC3"/>
<path d="M193.666 32.9044H192.214L195.171 19.498H197.177L200.133 32.9044H198.681L197.882 28.9326H194.459L193.666 32.9044ZM197.684 27.7038L196.197 20.4997H196.162L194.675 27.7038H197.684Z" fill="#007BC3"/>
<path d="M202.979 26.5152V32.9039H201.527V19.4917H207.294V20.7147H202.979V25.2805H206.215V26.5094H202.979V26.5152Z" fill="#007BC3"/>
</g>
</g>
<defs>
<clipPath id="clip0_1005_396">
<rect width="207.164" height="40" fill="white"/>
</clipPath>
</defs>
</svg>
