<svg width="33" height="32" viewBox="0 0 33 32" fill="none" xmlns="http://www.w3.org/2000/svg">
<g clip-path="url(#clip0_1008_3855)">
<path d="M24.6739 19.1254L23.5988 19.3138L23.8813 17.1674L23.5988 16.7475L23.8813 14.3225L26.632 15.4448L24.6739 19.1294V19.1254ZM29.057 25.5608H25.4666L28.8726 20.2006L29.8967 16.7004L32.0432 17.446C31.8548 20.1496 30.968 22.9003 29.057 25.5608ZM27.7974 20.0123L26.4437 21.1777L23.7361 25.5568H21.9664L23.7361 22.4334L25.137 21.2719L27.146 15.6253L29.2925 16.5121L27.7974 20.0123ZM23.1789 9.09577L16.0412 4.94421L13.4318 4.47725V6.38823L15.4369 8.25604L12.6391 8.0206C12.6391 8.0206 12.7294 8.16186 15.0641 10.634L25.6981 12.4037L27.5659 13.6162L22.7159 13.8516L20.7107 21.1738L14.1342 25.5529H9.84525L11.2893 22.712L11.0578 22.6178L7.18479 25.5529H6.25089L10.218 20.0044C10.4025 18.4191 10.3122 19.1176 10.5437 16.2727L9.93942 15.433L8.35414 21.5897L5.04231 25.549H4.20257L6.16064 22.7983L8.91134 14.3578L8.21288 14.6835L7.00037 18.0424L6.16064 18.5094C6.16064 18.5094 4.20257 23.2652 3.17449 25.6C1.67946 23.4614 0 20.5734 0 15.535C0 7.97744 6.4824 0 16.2335 0C25.9845 0 30.5991 7.4634 31.4389 11.3364L23.1828 9.09969L23.1789 9.09577ZM20.9854 25.5568H18.7448L22.8964 20.3811L23.3162 21.1738L20.9854 25.5529V25.5568ZM16.1354 31.9961C12.1682 31.9961 7.31821 30.5952 3.82195 26.3063H28.4056C25.5608 29.9909 20.6636 31.9961 16.1393 31.9961M16.2335 1.02416C7.09062 1.02808 1.11833 8.53856 1.11833 15.535C1.11833 19.5492 2.09933 21.5505 3.17057 23.4654C4.52434 19.8278 7.22796 12.596 7.22796 12.596C7.22796 12.596 8.48755 11.9446 8.48755 12.0348L10.3044 7.41631L11.4698 6.80809L12.9177 3.7317L16.0883 4.24574L22.5236 7.83617L29.7555 9.84132C27.8955 5.08547 22.6217 1.02808 16.2335 1.02808" fill="white"/>
</g>
<defs>
<clipPath id="clip0_1008_3855">
<rect width="32.0471" height="32" fill="white"/>
</clipPath>
</defs>
</svg>
